<svg width="16" height="16" viewBox="0 0 16 16" fill="none" xmlns="http://www.w3.org/2000/svg">
<g clip-path="url(#clip0_45_1261)">
<path d="M1.99984 1.33333H4.33317M15.3332 12.6667C15.3332 13.0203 15.1927 13.3594 14.9426 13.6095C14.6926 13.8595 14.3535 14 13.9998 14H1.99984C1.64622 14 1.30708 13.8595 1.05703 13.6095C0.80698 13.3594 0.666504 13.0203 0.666504 12.6667V4.66666C0.666504 3.93028 1.26346 3.33333 1.99984 3.33333H13.9998C14.3535 3.33333 14.6926 3.4738 14.9426 3.72385C15.1927 3.9739 15.3332 4.31304 15.3332 4.66666V12.6667Z" stroke="#293148" stroke-opacity="0.6" stroke-width="1.5" stroke-linecap="round" stroke-linejoin="round"/>
<path d="M5.7002 10.0163C5.99441 10.5177 6.44443 10.9092 6.98173 11.1313C7.51903 11.3533 8.11416 11.3936 8.67651 11.2462C9.23886 11.0987 9.73762 10.7716 10.0968 10.3144C10.4561 9.85735 10.6561 9.29537 10.6664 8.7141C10.6767 8.13283 10.4968 7.56411 10.1541 7.09453C9.8113 6.62496 9.32448 6.28026 8.76772 6.11292C8.21096 5.94558 7.61477 5.96477 7.06992 6.16757C6.52508 6.37037 6.06144 6.74567 5.74959 7.23631" stroke="#293148" stroke-opacity="0.6" stroke-width="1.5" stroke-linecap="round" stroke-linejoin="round"/>
</g>
<defs>
<clipPath id="clip0_45_1261">
<rect width="16" height="16" fill="white"/>
</clipPath>
</defs>
</svg>
