<svg width="24" height="18" viewBox="0 0 24 18" fill="none" xmlns="http://www.w3.org/2000/svg">
<path fill-rule="evenodd" clip-rule="evenodd" d="M2.14074 9C2.20271 9.10708 2.27614 9.23087 2.36088 9.36871C2.67952 9.88706 3.15481 10.599 3.77668 11.3658C5.56058 13.5654 8.37047 16 12 16C15.6295 16 18.4394 13.5654 20.2233 11.3658C20.5712 10.9369 21.2009 10.8712 21.6299 11.219C22.0588 11.5669 22.1246 12.1967 21.7767 12.6256C19.8766 14.9684 16.5534 18 12 18C7.44661 18 4.12338 14.9684 2.22332 12.6256C1.53577 11.7778 1.01106 10.992 0.657059 10.4161C0.479779 10.1277 0.344547 9.89073 0.252411 9.72343C0.206324 9.63975 0.170962 9.57338 0.146457 9.52662C0.134203 9.50323 0.124659 9.48473 0.117841 9.47141L0.109658 9.45533L0.107103 9.45026L0.105708 9.44748C0.10564 9.44735 0.105573 9.44721 1 9C0.105573 8.55279 0.105742 8.55245 0.105926 8.55208L0.10754 8.54887L0.110991 8.54204L0.122339 8.51982C0.131876 8.50127 0.145357 8.47531 0.162754 8.44244C0.197541 8.3767 0.248024 8.28323 0.313972 8.16599C0.445792 7.93164 0.639851 7.60152 0.894336 7.20747C1.40207 6.42131 2.15684 5.3706 3.14546 4.31606C5.10448 2.22644 8.10049 0 12 0C15.8995 0 18.8955 2.22644 20.8545 4.31606C21.8432 5.3706 22.5979 6.42131 23.1057 7.20747C23.3601 7.60152 23.5542 7.93164 23.686 8.16599C23.752 8.28323 23.8025 8.3767 23.8372 8.44244C23.8546 8.47531 23.8681 8.50127 23.8777 8.51982L23.889 8.54204L23.8925 8.54887L23.8936 8.5512C23.8938 8.55156 23.8944 8.55278 23.0357 8.98214L23.8944 8.55279C24.1414 9.04676 23.9412 9.64744 23.4472 9.89443C22.9534 10.1413 22.353 9.94133 22.1058 9.44773M2.14074 9C2.25003 8.81113 2.39492 8.57045 2.57441 8.29253C3.03544 7.57869 3.71817 6.6294 4.60454 5.68394C6.39552 3.77356 8.89951 2 12 2C15.1005 2 17.6045 3.77356 19.3955 5.68394C20.2818 6.6294 20.9646 7.57869 21.4256 8.29253C21.6555 8.64848 21.8286 8.94336 21.9429 9.14651C22 9.24802 22.0423 9.32643 22.0695 9.37787C22.0831 9.40359 22.0929 9.42255 22.099 9.43428L22.1058 9.44773M1 9L0.105708 9.44748C-0.0350553 9.16596 -0.0348382 8.83361 0.105926 8.55208L1 9Z" fill="#293148" fill-opacity="0.45"/>
</svg>
