<svg width="16" height="16" viewBox="0 0 16 16" fill="none" xmlns="http://www.w3.org/2000/svg">
<path d="M10.0669 0.869997C9.79776 0.594537 9.47624 0.375657 9.12128 0.22622C8.76632 0.0767823 8.38507 -0.000198364 7.99993 -0.000198364C7.61479 -0.000198364 7.23354 0.0767823 6.87857 0.22622C6.52361 0.375657 6.2021 0.594537 5.93293 0.869997L5.31093 1.508L4.42093 1.497C4.03568 1.49244 3.6534 1.56495 3.29659 1.71028C2.93977 1.85562 2.61562 2.07082 2.34319 2.34326C2.07076 2.61569 1.85555 2.93984 1.71022 3.29666C1.56489 3.65347 1.49237 4.03575 1.49693 4.421L1.50693 5.311L0.870928 5.933C0.595468 6.20217 0.376588 6.52368 0.227151 6.87864C0.0777131 7.23361 0.000732422 7.61486 0.000732422 8C0.000732422 8.38513 0.0777131 8.76639 0.227151 9.12135C0.376588 9.47631 0.595468 9.79783 0.870928 10.067L1.50793 10.689L1.49693 11.579C1.49237 11.9642 1.56489 12.3465 1.71022 12.7033C1.85555 13.0602 2.07076 13.3843 2.34319 13.6567C2.61562 13.9292 2.93977 14.1444 3.29659 14.2897C3.6534 14.435 4.03568 14.5076 4.42093 14.503L5.31093 14.493L5.93293 15.129C6.2021 15.4045 6.52361 15.6233 6.87857 15.7728C7.23354 15.9222 7.61479 15.9992 7.99993 15.9992C8.38507 15.9992 8.76632 15.9222 9.12128 15.7728C9.47624 15.6233 9.79776 15.4045 10.0669 15.129L10.6889 14.492L11.5789 14.503C11.9642 14.5076 12.3465 14.435 12.7033 14.2897C13.0601 14.1444 13.3842 13.9292 13.6567 13.6567C13.9291 13.3843 14.1443 13.0602 14.2896 12.7033C14.435 12.3465 14.5075 11.9642 14.5029 11.579L14.4929 10.689L15.1289 10.067C15.4044 9.79783 15.6233 9.47631 15.7727 9.12135C15.9221 8.76639 15.9991 8.38513 15.9991 8C15.9991 7.61486 15.9221 7.23361 15.7727 6.87864C15.6233 6.52368 15.4044 6.20217 15.1289 5.933L14.4919 5.311L14.5029 4.421C14.5075 4.03575 14.435 3.65347 14.2896 3.29666C14.1443 2.93984 13.9291 2.61569 13.6567 2.34326C13.3842 2.07082 13.0601 1.85562 12.7033 1.71028C12.3465 1.56495 11.9642 1.49244 11.5789 1.497L10.6889 1.507L10.0669 0.870997V0.869997ZM10.3539 6.854L7.35393 9.854C7.30748 9.90056 7.25231 9.9375 7.19156 9.96271C7.13082 9.98792 7.06569 10.0009 6.99993 10.0009C6.93416 10.0009 6.86904 9.98792 6.80829 9.96271C6.74755 9.9375 6.69237 9.90056 6.64593 9.854L5.14593 8.354C5.09944 8.30751 5.06256 8.25232 5.0374 8.19158C5.01225 8.13084 4.9993 8.06574 4.9993 8C4.9993 7.93425 5.01225 7.86915 5.0374 7.80841C5.06256 7.74767 5.09944 7.69248 5.14593 7.646C5.19242 7.59951 5.2476 7.56263 5.30834 7.53747C5.36908 7.51231 5.43418 7.49937 5.49993 7.49937C5.56567 7.49937 5.63077 7.51231 5.69151 7.53747C5.75225 7.56263 5.80744 7.59951 5.85393 7.646L6.99993 8.793L9.64593 6.146C9.73981 6.05211 9.86715 5.99937 9.99993 5.99937C10.1327 5.99937 10.26 6.05211 10.3539 6.146C10.4478 6.23988 10.5006 6.36722 10.5006 6.5C10.5006 6.63277 10.4478 6.76011 10.3539 6.854Z" fill="#7FC75E"/>
</svg>
